<svg xmlns="http://www.w3.org/2000/svg" viewBox="0 0 32 32" fill="#1a1a1a" shape-rendering="crispEdges">
  <rect x="10" y="2" width="12" height="2"/>
  <rect x="6" y="4" width="20" height="2"/>
  <rect x="4" y="6" width="24" height="2"/>
  <rect x="2" y="8" width="28" height="2"/>
  <!-- Eyes -->
  <rect x="2" y="10" width="28" height="2"/>
  <rect x="7" y="10" width="5" height="2" fill="#fafaf8"/>
  <rect x="20" y="10" width="5" height="2" fill="#fafaf8"/>
  <!-- Body -->
  <rect x="2" y="12" width="28" height="2"/>
  <rect x="2" y="14" width="28" height="2"/>
  <rect x="2" y="16" width="28" height="2"/>
  <rect x="2" y="18" width="28" height="2"/>
  <!-- Bottom curve -->
  <rect x="4" y="20" width="24" height="2"/>
  <rect x="6" y="22" width="20" height="2"/>
  <rect x="8" y="24" width="6" height="2"/>
  <rect x="18" y="24" width="6" height="2"/>
</svg>
