<?xml version="1.0" encoding="UTF-8"?>
<svg xmlns="http://www.w3.org/2000/svg" viewBox="0 0 320 320" width="320" height="320" shape-rendering="crispEdges">
  <g fill="black">
    
<rect x="140" y="0" width="90" height="10"/>    <rect x="140" y="10" width="90" height="10"/>    <rect x="110" y="20" width="120" height="10"/>    <rect x="110" y="30" width="100" height="10"/>    <rect x="90" y="40" width="120" height="10"/>    <rect x="80" y="50" width="130" height="10"/>    <rect x="50" y="60" width="210" height="10"/>    <rect x="50" y="70" width="210" height="10"/>    <rect x="40" y="80" width="230" height="10"/>    <rect x="30" y="90" width="260" height="10"/>    <rect x="30" y="100" width="260" height="10"/>    <rect x="40" y="110" width="250" height="10"/>    <rect x="50" y="120" width="60" height="10"/>    <rect x="140" y="120" width="30" height="10"/>    <rect x="200" y="120" width="60" height="10"/>    <rect x="50" y="130" width="60" height="10"/>    <rect x="140" y="130" width="30" height="10"/>    <rect x="200" y="130" width="60" height="10"/>    <rect x="70" y="140" width="40" height="10"/>    <rect x="140" y="140" width="30" height="10"/>    <rect x="200" y="140" width="40" height="10"/>    <rect x="30" y="150" width="30" height="10"/>    <rect x="70" y="150" width="40" height="10"/>    <rect x="140" y="150" width="30" height="10"/>    <rect x="200" y="150" width="40" height="10"/>    <rect x="30" y="160" width="30" height="10"/>    <rect x="70" y="160" width="170" height="10"/>    <rect x="30" y="170" width="30" height="10"/>    <rect x="90" y="170" width="140" height="10"/>    <rect x="30" y="180" width="30" height="10"/>    <rect x="90" y="180" width="130" height="10"/>    <rect x="40" y="190" width="20" height="10"/>    <rect x="120" y="190" width="80" height="10"/>    <rect x="40" y="200" width="20" height="10"/>    <rect x="100" y="200" width="120" height="10"/>    <rect x="40" y="210" width="20" height="10"/>    <rect x="100" y="210" width="120" height="10"/>    <rect x="40" y="220" width="20" height="10"/>    <rect x="80" y="220" width="200" height="10"/>    <rect x="30" y="230" width="250" height="10"/>    <rect x="30" y="240" width="250" height="10"/>    <rect x="30" y="250" width="230" height="10"/>    <rect x="50" y="260" width="210" height="10"/>    <rect x="50" y="270" width="20" height="10"/>    <rect x="80" y="270" width="170" height="10"/>    <rect x="50" y="280" width="20" height="10"/>    <rect x="90" y="280" width="40" height="10"/>    <rect x="190" y="280" width="40" height="10"/>    <rect x="50" y="290" width="20" height="10"/>    <rect x="80" y="290" width="50" height="10"/>    <rect x="190" y="290" width="40" height="10"/>    <rect x="50" y="300" width="10" height="10"/>    <rect x="80" y="300" width="50" height="10"/>    <rect x="190" y="300" width="60" height="10"/>    <rect x="80" y="310" width="50" height="10"/>    <rect x="190" y="310" width="60" height="10"/>
  </g>
</svg>