<?xml version="1.0" encoding="UTF-8"?>
<svg xmlns="http://www.w3.org/2000/svg" viewBox="0 0 320 320" width="320" height="320" shape-rendering="crispEdges">
  <g fill="black">
    
<rect x="90" y="0" width="90" height="10"/>    <rect x="90" y="10" width="90" height="10"/>    <rect x="60" y="20" width="100" height="10"/>    <rect x="60" y="30" width="100" height="10"/>    <rect x="250" y="30" width="20" height="10"/>    <rect x="30" y="40" width="150" height="10"/>    <rect x="250" y="40" width="20" height="10"/>    <rect x="30" y="50" width="150" height="10"/>    <rect x="250" y="50" width="20" height="10"/>    <rect x="30" y="60" width="190" height="10"/>    <rect x="250" y="60" width="20" height="10"/>    <rect x="10" y="70" width="220" height="10"/>    <rect x="250" y="70" width="20" height="10"/>    <rect x="10" y="80" width="220" height="10"/>    <rect x="250" y="80" width="20" height="10"/>    <rect x="10" y="90" width="220" height="10"/>    <rect x="250" y="90" width="20" height="10"/>    <rect x="10" y="100" width="220" height="10"/>    <rect x="250" y="100" width="20" height="10"/>    <rect x="10" y="110" width="210" height="10"/>    <rect x="250" y="110" width="20" height="10"/>    <rect x="20" y="120" width="40" height="10"/>    <rect x="90" y="120" width="40" height="10"/>    <rect x="160" y="120" width="50" height="10"/>    <rect x="250" y="120" width="20" height="10"/>    <rect x="20" y="130" width="40" height="10"/>    <rect x="90" y="130" width="40" height="10"/>    <rect x="160" y="130" width="50" height="10"/>    <rect x="250" y="130" width="20" height="10"/>    <rect x="20" y="140" width="40" height="10"/>    <rect x="90" y="140" width="40" height="10"/>    <rect x="160" y="140" width="50" height="10"/>    <rect x="250" y="140" width="20" height="10"/>    <rect x="20" y="150" width="40" height="10"/>    <rect x="90" y="150" width="40" height="10"/>    <rect x="160" y="150" width="40" height="10"/>    <rect x="250" y="150" width="20" height="10"/>    <rect x="40" y="160" width="140" height="10"/>    <rect x="250" y="160" width="20" height="10"/>    <rect x="50" y="170" width="130" height="10"/>    <rect x="250" y="170" width="20" height="10"/>    <rect x="60" y="180" width="110" height="10"/>    <rect x="230" y="180" width="70" height="10"/>    <rect x="50" y="190" width="160" height="10"/>    <rect x="220" y="190" width="80" height="10"/>    <rect x="30" y="200" width="210" height="10"/>    <rect x="250" y="200" width="50" height="10"/>    <rect x="30" y="210" width="210" height="10"/>    <rect x="250" y="210" width="30" height="10"/>    <rect x="30" y="220" width="210" height="10"/>    <rect x="250" y="220" width="30" height="10"/>    <rect x="20" y="230" width="260" height="10"/>    <rect x="10" y="240" width="20" height="10"/>    <rect x="60" y="240" width="120" height="10"/>    <rect x="250" y="240" width="30" height="10"/>    <rect x="10" y="250" width="20" height="10"/>    <rect x="60" y="250" width="130" height="10"/>    <rect x="10" y="260" width="180" height="10"/>    <rect x="10" y="270" width="100" height="10"/>    <rect x="140" y="270" width="50" height="10"/>    <rect x="50" y="280" width="50" height="10"/>    <rect x="140" y="280" width="50" height="10"/>    <rect x="30" y="290" width="60" height="10"/>    <rect x="160" y="290" width="50" height="10"/>    <rect x="30" y="300" width="60" height="10"/>    <rect x="160" y="300" width="50" height="10"/>    <rect x="30" y="310" width="60" height="10"/>    <rect x="160" y="310" width="50" height="10"/>
  </g>
</svg>