<?xml version="1.0" encoding="UTF-8"?>
<svg xmlns="http://www.w3.org/2000/svg" viewBox="0 0 320 320" width="320" height="320" shape-rendering="crispEdges">
  <g fill="black">
    
<rect x="140" y="0" width="50" height="10"/>    <rect x="140" y="10" width="50" height="10"/>    <rect x="30" y="20" width="40" height="10"/>    <rect x="120" y="20" width="40" height="10"/>    <rect x="170" y="20" width="40" height="10"/>    <rect x="30" y="30" width="10" height="10"/>    <rect x="60" y="30" width="10" height="10"/>    <rect x="100" y="30" width="50" height="10"/>    <rect x="180" y="30" width="60" height="10"/>    <rect x="10" y="40" width="30" height="10"/>    <rect x="60" y="40" width="30" height="10"/>    <rect x="100" y="40" width="40" height="10"/>    <rect x="190" y="40" width="50" height="10"/>    <rect x="10" y="50" width="10" height="10"/>    <rect x="80" y="50" width="10" height="10"/>    <rect x="100" y="50" width="60" height="10"/>    <rect x="180" y="50" width="60" height="10"/>    <rect x="10" y="60" width="10" height="10"/>    <rect x="70" y="60" width="20" height="10"/>    <rect x="100" y="60" width="60" height="10"/>    <rect x="180" y="60" width="90" height="10"/>    <rect x="10" y="70" width="30" height="10"/>    <rect x="60" y="70" width="30" height="10"/>    <rect x="100" y="70" width="60" height="10"/>    <rect x="180" y="70" width="90" height="10"/>    <rect x="30" y="80" width="10" height="10"/>    <rect x="60" y="80" width="10" height="10"/>    <rect x="100" y="80" width="170" height="10"/>    <rect x="30" y="90" width="10" height="10"/>    <rect x="60" y="90" width="10" height="10"/>    <rect x="80" y="90" width="190" height="10"/>    <rect x="30" y="100" width="40" height="10"/>    <rect x="80" y="100" width="190" height="10"/>    <rect x="30" y="110" width="40" height="10"/>    <rect x="80" y="110" width="190" height="10"/>    <rect x="30" y="120" width="40" height="10"/>    <rect x="80" y="120" width="40" height="10"/>    <rect x="150" y="120" width="30" height="10"/>    <rect x="210" y="120" width="80" height="10"/>    <rect x="30" y="130" width="40" height="10"/>    <rect x="80" y="130" width="40" height="10"/>    <rect x="150" y="130" width="30" height="10"/>    <rect x="210" y="130" width="80" height="10"/>    <rect x="30" y="140" width="40" height="10"/>    <rect x="80" y="140" width="40" height="10"/>    <rect x="150" y="140" width="30" height="10"/>    <rect x="210" y="140" width="80" height="10"/>    <rect x="40" y="150" width="30" height="10"/>    <rect x="80" y="150" width="40" height="10"/>    <rect x="150" y="150" width="30" height="10"/>    <rect x="210" y="150" width="80" height="10"/>    <rect x="50" y="160" width="20" height="10"/>    <rect x="100" y="160" width="150" height="10"/>    <rect x="50" y="170" width="20" height="10"/>    <rect x="100" y="170" width="150" height="10"/>    <rect x="30" y="180" width="60" height="10"/>    <rect x="120" y="180" width="120" height="10"/>    <rect x="30" y="190" width="240" height="10"/>    <rect x="30" y="200" width="240" height="10"/>    <rect x="30" y="210" width="270" height="10"/>    <rect x="30" y="220" width="270" height="10"/>    <rect x="40" y="230" width="260" height="10"/>    <rect x="50" y="240" width="20" height="10"/>    <rect x="80" y="240" width="160" height="10"/>    <rect x="280" y="240" width="20" height="10"/>    <rect x="50" y="250" width="20" height="10"/>    <rect x="120" y="250" width="110" height="10"/>    <rect x="280" y="250" width="20" height="10"/>    <rect x="50" y="260" width="20" height="10"/>    <rect x="120" y="260" width="180" height="10"/>    <rect x="50" y="270" width="20" height="10"/>    <rect x="110" y="270" width="190" height="10"/>    <rect x="50" y="280" width="20" height="10"/>    <rect x="100" y="280" width="170" height="10"/>    <rect x="50" y="290" width="20" height="10"/>    <rect x="100" y="290" width="170" height="10"/>    <rect x="50" y="300" width="20" height="10"/>    <rect x="100" y="300" width="170" height="10"/>    <rect x="50" y="310" width="20" height="10"/>    <rect x="100" y="310" width="170" height="10"/>
  </g>
</svg>