<?xml version="1.0" encoding="UTF-8"?>
<svg xmlns="http://www.w3.org/2000/svg" viewBox="0 0 270 270" width="270" height="270" shape-rendering="crispEdges">
  <g fill="black">
    
<rect x="60" y="0" width="140" height="10"/>    <rect x="50" y="10" width="160" height="10"/>    <rect x="40" y="20" width="180" height="10"/>    <rect x="30" y="30" width="210" height="10"/>    <rect x="30" y="40" width="210" height="10"/>    <rect x="30" y="50" width="210" height="10"/>    <rect x="40" y="60" width="30" height="10"/>    <rect x="100" y="60" width="30" height="10"/>    <rect x="160" y="60" width="60" height="10"/>    <rect x="40" y="70" width="30" height="10"/>    <rect x="100" y="70" width="30" height="10"/>    <rect x="160" y="70" width="60" height="10"/>    <rect x="40" y="80" width="30" height="10"/>    <rect x="100" y="80" width="30" height="10"/>    <rect x="160" y="80" width="60" height="10"/>    <rect x="40" y="90" width="30" height="10"/>    <rect x="100" y="90" width="30" height="10"/>    <rect x="160" y="90" width="60" height="10"/>    <rect x="40" y="100" width="180" height="10"/>    <rect x="40" y="110" width="160" height="10"/>    <rect x="60" y="120" width="130" height="10"/>    <rect x="60" y="130" width="130" height="10"/>    <rect x="60" y="140" width="140" height="10"/>    <rect x="60" y="150" width="160" height="10"/>    <rect x="40" y="160" width="180" height="10"/>    <rect x="40" y="170" width="180" height="10"/>    <rect x="40" y="180" width="200" height="10"/>    <rect x="40" y="190" width="200" height="10"/>    <rect x="40" y="200" width="200" height="10"/>    <rect x="40" y="210" width="200" height="10"/>    <rect x="70" y="220" width="120" height="10"/>    <rect x="70" y="230" width="40" height="10"/>    <rect x="140" y="230" width="50" height="10"/>    <rect x="60" y="240" width="50" height="10"/>    <rect x="140" y="240" width="50" height="10"/>    <rect x="50" y="250" width="60" height="10"/>    <rect x="140" y="250" width="50" height="10"/>    <rect x="50" y="260" width="60" height="10"/>    <rect x="140" y="260" width="50" height="10"/>
  </g>
</svg>