<?xml version="1.0" encoding="UTF-8"?>
<svg xmlns="http://www.w3.org/2000/svg" viewBox="0 0 320 320" width="320" height="320" shape-rendering="crispEdges">
  <g fill="black">
    
<rect x="100" y="0" width="50" height="10"/>    <rect x="100" y="10" width="50" height="10"/>    <rect x="100" y="20" width="50" height="10"/>    <rect x="100" y="30" width="60" height="10"/>    <rect x="60" y="40" width="140" height="10"/>    <rect x="60" y="50" width="140" height="10"/>    <rect x="40" y="60" width="180" height="10"/>    <rect x="40" y="70" width="180" height="10"/>    <rect x="40" y="80" width="180" height="10"/>    <rect x="40" y="90" width="180" height="10"/>    <rect x="40" y="100" width="180" height="10"/>    <rect x="40" y="110" width="180" height="10"/>    <rect x="20" y="120" width="60" height="10"/>    <rect x="110" y="120" width="30" height="10"/>    <rect x="170" y="120" width="70" height="10"/>    <rect x="20" y="130" width="60" height="10"/>    <rect x="110" y="130" width="30" height="10"/>    <rect x="170" y="130" width="70" height="10"/>    <rect x="20" y="140" width="60" height="10"/>    <rect x="110" y="140" width="30" height="10"/>    <rect x="170" y="140" width="70" height="10"/>    <rect x="20" y="150" width="60" height="10"/>    <rect x="110" y="150" width="30" height="10"/>    <rect x="170" y="150" width="100" height="10"/>    <rect x="50" y="160" width="140" height="10"/>    <rect x="240" y="160" width="30" height="10"/>    <rect x="50" y="170" width="140" height="10"/>    <rect x="240" y="170" width="30" height="10"/>    <rect x="50" y="180" width="120" height="10"/>    <rect x="190" y="180" width="60" height="10"/>    <rect x="270" y="180" width="30" height="10"/>    <rect x="30" y="190" width="140" height="10"/>    <rect x="190" y="190" width="20" height="10"/>    <rect x="230" y="190" width="20" height="10"/>    <rect x="270" y="190" width="30" height="10"/>    <rect x="30" y="200" width="140" height="10"/>    <rect x="190" y="200" width="20" height="10"/>    <rect x="230" y="200" width="20" height="10"/>    <rect x="270" y="200" width="30" height="10"/>    <rect x="10" y="210" width="160" height="10"/>    <rect x="190" y="210" width="20" height="10"/>    <rect x="230" y="210" width="20" height="10"/>    <rect x="270" y="210" width="30" height="10"/>    <rect x="10" y="220" width="160" height="10"/>    <rect x="190" y="220" width="20" height="10"/>    <rect x="230" y="220" width="20" height="10"/>    <rect x="270" y="220" width="30" height="10"/>    <rect x="10" y="230" width="160" height="10"/>    <rect x="190" y="230" width="60" height="10"/>    <rect x="270" y="230" width="30" height="10"/>    <rect x="10" y="240" width="40" height="10"/>    <rect x="60" y="240" width="110" height="10"/>    <rect x="180" y="240" width="70" height="10"/>    <rect x="260" y="240" width="40" height="10"/>    <rect x="60" y="250" width="130" height="10"/>    <rect x="250" y="250" width="20" height="10"/>    <rect x="60" y="260" width="130" height="10"/>    <rect x="240" y="260" width="30" height="10"/>    <rect x="60" y="270" width="190" height="10"/>    <rect x="60" y="280" width="50" height="10"/>    <rect x="160" y="280" width="40" height="10"/>    <rect x="50" y="290" width="60" height="10"/>    <rect x="160" y="290" width="50" height="10"/>    <rect x="50" y="300" width="60" height="10"/>    <rect x="160" y="300" width="50" height="10"/>    <rect x="50" y="310" width="60" height="10"/>    <rect x="160" y="310" width="50" height="10"/>
  </g>
</svg>