<svg xmlns="http://www.w3.org/2000/svg" viewBox="0 0 16 16" width="48" height="48" fill="#1a1a1a" shape-rendering="crispEdges">
  <!-- Big head - hood -->
  <rect x="5" y="0" width="6" height="1"/>
  <rect x="4" y="1" width="8" height="1"/>
  <rect x="3" y="2" width="10" height="1"/>
  <!-- Face -->
  <rect x="3" y="3" width="10" height="1"/>
  <rect x="3" y="4" width="10" height="1"/>
  <rect x="4" y="5" width="8" height="1"/>
  <!-- Eyes -->
  <rect x="5" y="4" width="2" height="1" fill="#fafaf8"/>
  <rect x="9" y="4" width="2" height="1" fill="#fafaf8"/>
  <!-- Cross on hood -->
  <rect x="7" y="1" width="2" height="1" fill="#fafaf8"/>
  <!-- Body -->
  <rect x="5" y="6" width="6" height="1"/>
  <rect x="5" y="7" width="6" height="1"/>
  <rect x="5" y="8" width="6" height="1"/>
  <!-- Cross on robe -->
  <rect x="7" y="7" width="2" height="1" fill="#fafaf8"/>
  <!-- Arms -->
  <rect x="3" y="7" width="2" height="1"/>
  <rect x="11" y="7" width="2" height="1"/>
  <!-- Staff (right hand) -->
  <rect x="13" y="3" width="1" height="6"/>
  <rect x="12" y="2" width="3" height="1"/>
  <rect x="13" y="1" width="1" height="1"/>
  <!-- Legs -->
  <rect x="5" y="9" width="2" height="1"/>
  <rect x="9" y="9" width="2" height="1"/>
  <!-- Feet -->
  <rect x="4" y="10" width="3" height="1"/>
  <rect x="9" y="10" width="3" height="1"/>
</svg>
