<svg xmlns="http://www.w3.org/2000/svg" viewBox="0 0 16 16" width="32" height="32" fill="#1a1a1a" shape-rendering="crispEdges">
  <!-- Hair -->
  <rect x="5" y="0" width="5" height="1"/>
  <rect x="4" y="1" width="7" height="1"/>
  <!-- Head -->
  <rect x="4" y="2" width="7" height="1"/>
  <rect x="4" y="3" width="7" height="1"/>
  <!-- Eyes (cute big eyes) -->
  <rect x="5" y="3" width="2" height="1" fill="#fafaf8"/>
  <rect x="8" y="3" width="2" height="1" fill="#fafaf8"/>
  <!-- Body -->
  <rect x="5" y="4" width="5" height="1"/>
  <rect x="4" y="5" width="7" height="1"/>
  <rect x="4" y="6" width="7" height="1"/>
  <rect x="5" y="7" width="5" height="1"/>
  <!-- Scarf flowing back -->
  <rect x="2" y="4" width="3" height="1"/>
  <rect x="1" y="5" width="3" height="1"/>
  <rect x="0" y="6" width="2" height="1"/>
  <!-- Arm (forward) -->
  <rect x="11" y="5" width="2" height="1"/>
  <!-- Belt -->
  <rect x="6" y="7" width="3" height="1" fill="#fafaf8"/>
  <!-- Front leg (stepping forward) -->
  <rect x="8" y="8" width="2" height="1"/>
  <rect x="9" y="9" width="2" height="1"/>
  <rect x="10" y="10" width="2" height="1"/>
  <!-- Back leg (pushing off) -->
  <rect x="5" y="8" width="2" height="1"/>
  <rect x="4" y="9" width="2" height="1"/>
  <rect x="3" y="10" width="2" height="1"/>
</svg>
